<?xml version="1.0" encoding="utf-8"?>
<!-- Generator: Adobe Illustrator 23.0.0, SVG Export Plug-In . SVG Version: 6.00 Build 0)  -->
<svg version="1.1" id="Layer_1" xmlns="http://www.w3.org/2000/svg" xmlns:xlink="http://www.w3.org/1999/xlink" x="0px" y="0px"
	 viewBox="0 0 748.02 161.94" style="enable-background:new 0 0 748.02 161.94;" xml:space="preserve">
<g>
	<path d="M2.83,2.83h26.04v130.2L2.83,159.07V2.83z M54.91,133.03c14.59,0,26.3-11.72,26.3-26.04s-11.72-26.04-26.3-26.04V54.91
		c7.29,0,13.02-5.73,13.02-13.01c0-7.29-5.73-13.02-13.02-13.02V2.83c21.61,0,39.07,17.44,39.07,39.06c0,8.85-2.87,16.92-7.81,23.43
		c12.5,9.38,20.83,24.74,20.83,41.66c0,28.65-23.17,52.08-52.08,52.08V133.03z"/>
	<path d="M120.06,54.91V2.83h26.04v52.07h26.04L146.1,80.95L120.06,54.91z M172.13,80.95l26.04-26.04V2.83h26.04v52.07l-26.04,26.04
		v52.08l-26.04,26.04V80.95z"/>
	<path d="M250.31,2.83h26.04v130.2l-26.04,26.04V2.83z M302.38,80.95c14.33,0,26.04-11.72,26.04-26.04
		c0-14.32-11.72-26.04-26.04-26.04V2.83c28.65,0,52.08,23.43,52.08,52.07c0,28.65-23.43,52.08-52.08,52.08V80.95z M328.43,106.99
		l26.04,26.04v26.04h-26.04V106.99z"/>
	<path d="M380.56,2.83h26.04v130.2l-26.04,26.04V2.83z M432.63,2.83h52.08v26.04h-52.08V2.83z M432.63,54.91h52.08v26.04h-52.08
		V54.91z M432.63,133.03h52.08v26.04h-52.08V133.03z"/>
	<path d="M510.81,2.83h26.04v130.2l-26.04,26.04V2.83z M562.88,133.03c14.33,0,26.04-11.72,26.04-26.04V54.91
		c0-14.32-11.72-26.04-26.04-26.04V2.83c28.91,0,52.08,23.43,52.08,52.07v52.08c0,28.65-23.17,52.08-52.08,52.08V133.03z"/>
	<path d="M641.05,54.91c0-28.64,23.43-52.07,52.07-52.07c28.91,0,52.08,23.43,52.08,52.07l-26.04,26.04V54.91
		c0-14.32-11.46-26.04-26.04-26.04c-14.32,0-26.04,11.72-26.04,26.04l-26.04,26.04V54.91z M641.05,106.99l26.04-26.04v26.04
		c0,14.32,11.72,26.04,26.04,26.04c14.59,0,26.04-11.72,26.04-26.04l26.04-26.04v26.04c0,28.65-23.17,52.08-52.08,52.08
		C664.49,159.07,641.05,135.64,641.05,106.99z"/>
</g>
</svg>
